/* XPM */
static char *coin[] = {
/* columns rows colors chars-per-pixel */
"64 63 180 2 ",
"   c #79796F",
".  c #7D7C73",
"X  c #807F76",
"o  c #8C7E75",
"O  c #8C7E7B",
"+  c #E27B74",
"@  c #808076",
"#  c #8C8176",
"$  c #85847B",
"%  c #8B847C",
"&  c #87887D",
"*  c #89897E",
"=  c #918077",
"-  c #95847C",
";  c #98877E",
":  c #928D7F",
">  c #9A887F",
",  c #E5817A",
"<  c #878680",
"1  c #8D8682",
"2  c #8D8D83",
"3  c #8E8C89",
"4  c #938683",
"5  c #998781",
"6  c #958B85",
"7  c #9B8B84",
"8  c #958789",
"9  c #958D8B",
"0  c #9B8E8A",
"q  c #8F9085",
"w  c #919186",
"e  c #9B9286",
"r  c #93928B",
"t  c #9C928C",
"y  c #9F988D",
"u  c #978C90",
"i  c #9A8E92",
"p  c #959491",
"a  c #9D9493",
"s  c #9B9996",
"d  c #9F9398",
"f  c #9E9C99",
"g  c #A18D85",
"h  c #A38E89",
"j  c #A88F8B",
"k  c #A29087",
"l  c #A2938C",
"z  c #AA938E",
"x  c #A49C8D",
"c  c #A99F8F",
"v  c #A19792",
"b  c #AD9591",
"n  c #A39B93",
"m  c #AB9C93",
"M  c #A19599",
"N  c #A79F99",
"B  c #AA9B98",
"V  c #B19693",
"C  c #B39A96",
"Z  c #B0969A",
"A  c #BB9498",
"S  c #B59C98",
"D  c #B99D9B",
"F  c #A9A18E",
"G  c #A7A095",
"H  c #ACA394",
"J  c #ABA39A",
"K  c #AFA89E",
"L  c #B0A696",
"P  c #B2AA96",
"I  c #B5A39A",
"U  c #B9A49D",
"Y  c #B5AB9B",
"T  c #B8AF9C",
"R  c #B9B19D",
"E  c #B69CA1",
"W  c #BD9DA3",
"Q  c #A5A3A0",
"!  c #B2A5A0",
"~  c #BDA7A1",
"^  c #B7ABA0",
"/  c #BAADA2",
"(  c #B5ACAC",
")  c #BDB1A5",
"_  c #BFB4A9",
"`  c #E88682",
"'  c #E88986",
"]  c #EA8D8E",
"[  c #E98F93",
"{  c #EC9295",
"}  c #EC969B",
"|  c #C49CA3",
" . c #CB9CA6",
".. c #C89EA9",
"X. c #DF9BB2",
"o. c #EE9AA2",
"O. c #ED9DA9",
"+. c #E39EB4",
"@. c #C4A5A9",
"#. c #CBA5AD",
"$. c #C5AEAD",
"%. c #CDABAC",
"&. c #D1A2AE",
"*. c #C0B4A7",
"=. c #C2B5AA",
"-. c #C8B2AC",
";. c #CDA7B0",
":. c #D3A4B1",
">. c #DAA4B4",
",. c #D4AAB4",
"<. c #D9ABBA",
"1. c #C9B6B2",
"2. c #C4B9B3",
"3. c #C9BAB3",
"4. c #CFB4B8",
"5. c #CBBDB9",
"6. c #DBB4BD",
"7. c #D3B8BB",
"8. c #EEA2A7",
"9. c #F0A2AF",
"0. c #E4A1B6",
"q. c #E6A3B9",
"w. c #EAA5BC",
"e. c #E4ACBC",
"r. c #ECA8BE",
"t. c #F1A5B5",
"y. c #F1AABC",
"u. c #E5B2BC",
"i. c #E9B3BF",
"p. c #CFC4BD",
"a. c #DABEC3",
"s. c #EEABC1",
"d. c #F2AFC5",
"f. c #ECB3C4",
"g. c #EABBC5",
"h. c #E7BDC9",
"j. c #E9BECA",
"k. c #F3B0C6",
"l. c #F2B4C8",
"z. c #F2BCCC",
"x. c #CCC4C4",
"c. c #CFC9C3",
"v. c #D2C2C0",
"b. c #DCC5C7",
"n. c #D2C8C2",
"m. c #DCD3CE",
"M. c #EDC2C6",
"N. c #EDC9C6",
"B. c #E4C5CB",
"V. c #EECBC9",
"C. c #F4C2CE",
"Z. c #E5D7C8",
"A. c #EFD3CB",
"S. c #EBDCCA",
"D. c #F1D4CE",
"F. c #F1DBCE",
"G. c #EDC3D1",
"H. c #E3CED4",
"J. c #F3C5D2",
"K. c #F4CBD5",
"L. c #F0CDD8",
"P. c #EFD2DA",
"I. c #E5DBD9",
"U. c #EBDBDE",
"Y. c #F6D1D6",
"T. c #F7DADC",
"R. c #F8D8DB",
"E. c #EFE2CE",
"W. c #F0E2CE",
"Q. c #F1E4D1",
"!. c #F7E4DD",
"~. c #F8E0DF",
"^. c #F5E9DA",
"/. c #EFEAE2",
"(. c #F9E4E2",
"). c #FAECE6",
"_. c #FAEEE8",
"`. c #FAF2E6",
"'. c #F6F1E8",
"]. c #FCF4E9",
/* pixels */
"b C C C C C C A b b V - < w w w w r w w w w w w * : & & G J J J J J J J G G G G x N n 4 6 6 6 8 7 4 6 8 0 0 0 0 0 0 8 O V C V z ",
"C C C V b b b > o ; % % * 2 q q w r w w w w w * * & * y J J J J J J J G G n n y 6 6 4 e 7 6 5 6 5 6 0 l 0 t 0 5 - 5 4 b A V b z ",
"V V V V V b V g   X % < 2 q w w w q w w w r y w G J J J K J G G n n n G F s n t 8 l 0 0 6 4 7 8 7 0 0 h 0 h 0 4 b D S S C V V V ",
"g j V V C C A g X % 2 2 q w w r r w q r w r w * G G G J G n t 6 w e J J G G n e 6 7 0 8 0 7 8 7 0 0 l t l l 0 6 g b V V V z j > ",
"c k C D C C C g @ & 2 q q r r r r r r w q q 2 & y f G G G t t l n x s J J G s e 6 0 0 6 7 8 4 6 8 7 0 t l l h 5 g V V V b z > F ",
"Y F V D D C D k @ & 2 q q w w w w r w w r q 2 & y J J J J y v t a x t G J J G e 6 0 7 7 6 7 4 7 8 7 8 7 8 7 0 5 k V C D A z x P ",
"P c b C V V C k   @ & & & * w w q w q q q 2 < & y G G G n e t y y t e N G n n e 4 - % - 4 4 4 0 0 0 0 6 7 6 5 % g C C V V z x P ",
"P F k k j x z > . & & & 2 & * w q & & < < & < < q : 6 w e 6 r e t t 6 e t t 6 % 7 0 7 6 7 6 4 0 0 7 7 l l e t 0 > > > k > k x P ",
"P P P P T P P F p s s s f 3 2 q w < p f s s s p t n x n y t 6 t l l n y y t t 4 T _ ) ) ) H 4 4 6 4 n _ _ ) *./ c F H P H P P P ",
"F L P P H P T F 3 9 3 r s 3 & q 3 $ r s p p p 3 t l t l t t t l y t t 0 t 9 0 4 Y _ ) ^ ) I % 7 7 4 x ) ^ / / Y k L F P P F F F ",
"F P F F P P P x p p s s s p $ < < @ p 3 p r 3 3 6 t t t t 6 9 t t t 0 t y y y 6 I ) ) ) / / : 6 6 4 I ^ / / ^ ^ F P P F F P P F ",
"P F F F P T T x p p s s s s r & $ p p p p p s 3 6 0 r 0 e e t y y l v v l y t 6 J ^ Y Y ^ / / l 0 I ) ^ ^ ) ) ^ x P P H P F P F ",
"H F P P P P P F u p r p p 3 p p p p p p p p r 3 6 y l y t l x l l n v l l t 0 4 Y ) ) ^ T Y ^ ) ) ) / ^ R R R Y F P T P P P P F ",
"P P P P y p s t p 3 r p p p p p p p p u 2 6 r 6 y y t t t t y t t y y y 6 n J m ) =.=.) / / ) ) ) T ^ Y F F H c F T R P P P P F ",
"P P P F s s p p p p r p p p p p p p p 2 9 v t t t t t t t t t t t t l 6 H *._ =.) ) ) ) ) ) ) =.*.) ^ J F P P P T P P T T R R P ",
"P P P x p s p p p p p p p p p p p p p 9 t y t t 7 t t 0 e t t t t t t 7 Y / / ^ ) ^ T ^ / / ) ) ) ) ^ J > P F P P R P T R P R R ",
"F P R F q p p p s p p p p p p p p p s p 4 t y t 9 6 t t 7 t 6 7 t e 9 7 H ^ ^ Y / 3.^ ^ ) ^ ^ ) ) ) T Y F H P P P T R T T T P P ",
"P P F P F q 3 2 r p p p p p u s s s p p p 6 9 4 t B @.#.b 6 6 t t 6 6 t t n m t ~ f.3.^ ^ ^ ) ) *.) ) _ ) G F F F P P T P T T T ",
"P P F P P T P n r a p p p 3 3 3 3 p p s s f Q ( 6.f.d.w.&.t t 0 t e t t v n ! ;.s.l.B.1.) ) / ) ) *./ / ) _ ) ^ F P P P P T T T ",
"P P P H L P P x s s s p r 3 3 r r 3 s f ( x.H.J.l.d.r.+.w.| 0 r t t t t I 4.l.k.d.d.k.u.-.) Y l l J / / / / / ^ F P T T R P R P ",
"P P P L P P P x p s s s p 1 ! -.=.! ( a.G.z.l.d.d.d.w.q.w.,.t t t l K 5.g.l.k.k.d.d.d.d.d.e.;.E B 6 J ) / ) / / F P P R R T T T ",
"P P P P P L L F u p p p 3 t *.*._ 6.l.l.d.d.k.d.d.d.w.w.w.&.t 0 J c./._.Y.z.d.d.d.d.d.l.l.d.l.d.w.v n ) ) / / I x P P P P T P P ",
"P P P P P P P F 3 p p p p r / *.*.j.d.d.k.d.d.k.d.l.q.w.q.#.B 2.U.].].].].(.J.l.d.d.d.d.d.d.d.l.s.Z m / ) ) T Y F P P P P R T H ",
"R H e e e e e w t r t t t n *./ 5.L.d.d.d.d.d.d.d.d.q.+.+.6.H.J.z.Y._.].].].].T.z.d.d.d.d.d.d.w.w.W y n l l y n e e y y x y F P ",
"R P w 6 9 9 9 4 ^ / *./ ) *./ / p.J.d.d.d.d.d.d.d.d.w.+.+.r.k.l.s.l.J.).].].].].).K.l.d.l.d.w.w.d.@.r t t a t y * y a t a 6 H P ",
"P F 9 y t a 9 : Y ^ / / ! ^ / I n.J.d.d.d.d.d.l.z.K.g.+.+.0.r.l.d.O.y.z.~.].].].].].(.C.d.0.q.r.d.:.a a a a v a 1 t y a s e x P ",
"H t t a y t 9 6 / / / / / / ^ ^ m.z.l.z.J.Y.R.(.`.`.!.u.+.0.s.8.[ + o.k.l.Y._.].].].].`.M.w.s.s.d.<.a y n a a a 6 y a t t t e F ",
"e y x s v s a 6 / $./ / ^ ^ ^ / I.~.(._.].].].].].`.^.D.e.+.O.' + } t.d.k.d.J.(.`.].].^.D.r.d.d.d.<.a a t t t t 1 s n N N N a e ",
"n n n n n a r 4 I Y ^ ^ I I I _ /.].].].]._.].].].`.^.W.V.q.{ , o.d.d.d.d.d.d.l.J.^.Q.E.A.f.d.s.:.b a v a y v a 1 0 t a s n a a ",
"s n n n a a t 6 0 6 0 H ^ Y Y 2.'.].].].].].].].].].^.W.W.M.r.9.d.k.k.d.k.d.d.d.w.A.W.E.F.f.s.:.v t a a n a v n 9 t r 6 y a t t ",
"t a y a n a y a r 0 6 0 Y ^ ^ c.].].].].].]._._.).R.F.W.W.A.r.k.d.d.d.d.d.s.w.q.w.V.W.W.W.g...v a v n n n n a n n a s v 6 a a t ",
"t a v a n n n a a a r 1 I ^ I m.]._.(.T.L.J.C.z.l.f.u.F.W.N.0.q.w.w.w.w.w.d.w.w.y.N.W.W.S.$.a t t a y a a v n a t 9 t a 6 r t r ",
"a a n s s n s t 9 9 1 1 ^ I ^ I.z.8.8.d.d.d.d.d.d.r.0.V.W.M.w.w.w.d.d.d.d.d.+.s.d.M.W.S._ v s y v v a a t a a t t r r 6 9 s t t ",
"t t t t y t t 4 1 % 4 J / I _ U.y.` ' d.d.d.d.d.l.w.+.i.F.z.q.q.q.q.w.d.w.q.w.s.w.g.Z./ a t a t a n n n n n a t % 1 1 9 l t t a ",
"a t a n n n a 6 I Y Y K Y ! 2.P.t.` [ d.d.d.d.d.y.+.0.r.V.f.w.q.w.w.+.+.w.w.w.s.s.<.! r 9 a n n y a t a n n n t 1 t a a t a t a ",
"% 9 s m M n s 6 I / ^ I Y ^ 5.J.t.] o.d.d.d.s.w.w.+.0.w.0.0.w.w.q.+.w.q.w.s.w.s...v t t a a y a v a t y a a a t 6 a a t r 9 6 < ",
"d 9 t a v a t 4 / / ^ I I Y v.z.9.{ ] y.k.d.w.s.q.+.+.w.#.>.w.w.w.w.w.q.s.s.w. .0 t a a s n v n v n n a a a t 9 4 n M v v r 4 d ",
"d a 6 a y a a 6 / / / ^ Y ^ b.l.t.9.t.d.s.q.q.w.s.w.+.q.S l ;.e.w.w.w.q.s.s.| 6 6 t t t v a v v M v n n n n t 9 1 y n a a 6 i d ",
"d u 6 a a 9 6 1 / *./ / / $.B.k.d.d.y.w.w.w.w.s.w.d.q.q.S # g z A  .X.q.q.~ e : 4 r a t t t y a v v n v a n a 0 1 t a a 0 9 i M ",
"M i 1 2 4 1 < O m m n m c J h.s.w.w.w.w.w.w.q.w.s.d.w.q.V # ; - - > 4 h g # # # 1 6 0 7 8 6 t a v y 4 6 6 6 6 6 1 1 1 3 1 1 a M ",
"d d M M M d d 0 F H n F x m g.w.w.w.w.w.w.w.w.r.w.r.s.0.A 5 - - 7 7 0 g > > > - k S S C m h v n n n h m C C C m 0 d d d d d i d ",
"M M M i d i d 8 m L H L H n 7.k.s.r.r.r.w.r.r.w.w.r.l.w.A > > > > > ; ; > ; > ; k U U I S b a a a v t I I I I z 8 a d i i d d d ",
"M d M M d d d 9 n P K I H x / f.s.s.w.r.d.w.q.w.r.d.k.k.A - = - ; ; ; ; > > 5 > k I U U U m 0 v n 0 z S I I I z 8 i i u i i i i ",
"a d i d i d d 8 x H P Y P I n @.s.s.d.w.q.q.q.w.w.e.%.U g > > > > > k > g g 7 > 0 C I I I U m 0 0 v I S I U I b 8 i u u i u u i ",
"d a i i i u i 8 H P Y P I H c H e.d.w.q.q.w.e.:.D j > > > > > > g > g k > > 5 > k U U S S I I I I U U S S I S z 8 u u i i u i d ",
"M M M M u 0 t t J Y ^ ^ Y H H H %.l.s.f.6.$.m : ; ; > > > > > > > > > > ; ; > 7 b ~ ~ ~ I I U U U S I C z 0 a 8 u i i u i i i d ",
"M M M a n H H I P Y Y Y P P H H I 6.7.Y l 7 5 g ; ; ; > > > > > > > > > > c C I U ~ ~ ~ U U ~ ~ ~ U I z i M a d i u i i d i i i ",
"a d d 0 H H P K P J K Y Y I J K Y T Y e > > > > ; ; > > > > ; ; > > > ; g C I S U U U I U U ~ ~ ~ U I l i d d d d d i i d d i d ",
"i i d i t H L L I P Y ^ ^ Y Y Y T Y K x - 7 6 g > ; - ; = ; ; = - ; = - 7 b C C S I S I I I I ~ U U I b 0 M M M M M d u i i i M ",
"i u i a t z x l J P P ^ Y Y K Y P I H H e - > = ; > ; - ; = = = ; - - > 7 - 7 > z S I I D I D ~ ~ ~ U I C i a u u d i i d d i i ",
"u u u i M v M i H Y I P I P P Y P P I L L H m e > > > > ; ; ; > - ; > ; k k k g 0 S U ~ U U I U U U U U U I B z u M v i u i d i ",
"i d i M M M M i H Y T Y Y P n t y J P Y Y Y I e > k > > ; - ; ; ; ; ; ; > g k 5 g U ~ ~ ~ U m h h z I I I I S z i M M d u i i d ",
"i d M M M M M 0 J Y Y P Y G * q w w F H K P P e g > > > > k > > ; > > > 7 > 5 > g U ~ ~ U C e l v 0 b I I U I m i M d d i u u i ",
"d i i d M d M i H Y Y P Y t * * * * F T P P H e > k k k > k > > ; > > > > 7 > > g I U ~ I z 0 l l l l I U U S z i d d i i i i i ",
"i i d d d i d i H T T T T y * w w q G T T Y T y > k > > k > > ; ; > k > - > - - g I U U U z 8 h h t h S S S C l 0 i u u d i i i ",
"M u 8 8 8 8 8 5 w t y e y y w r w q e e y y x : ; ; ; ; ; = > k ; ; # - - o o o 5 h k k k 0 0 0 0 0 5 7 7 7 7 5 8 8 8 4 8 8 8 i ",
"d 8 b S S V A g $ 6 w q w w w w 2 w 2 q q q w * y x n G x : g k > - - t y s y e 0 l l z l a t 0 0 0 h t l l 0 4 V A D S V z 8 a ",
"u 8 z C C V V g $ : q : : q 2 2 w q w 2 w w w q t n G G m 6 > 7 > ; : n G G m 6 7 0 0 l 0 l h t l 0 0 h 0 0 8 - h D A V V k 8 i ",
"8 8 C S S C C g $ q r r w w w w w 2 w w w w w w n n s J G t - 7 7 - e J J J G t 0 l l h h l 0 h 0 0 l 0 0 0 6 4 j D C V z z 4 u ",
"8 b S C A V V g $ q q w w w w w w 2 2 q q q w * y G G G J m t - - e n G J J G r 8 t l t l t l 0 0 0 0 0 0 8 6 - j D D V z b b 8 ",
"V V V b b z V 7 @ & * q 2 w w q q 2 q w w q q q y G G J J G G n n n n G G G N w 7 h t t 0 l t h l l l l 0 0 7 4 j D C V z V V V ",
"V Z A S A C C k # 6 * $ w w w 2 : : w w r w r w w r w x G G G J J G G G G m n t : 6 4 5 0 8 0 0 7 8 0 0 h l 0 0 7 7 g j V A V V ",
"C C S D S C C C S S P 4 * r w w r w w r w w q r r r r e G K K K K K J G G G J G n n M 6 5 6 6 6 7 0 8 7 8 5 8 0 0 0 8 5 j C S C "
};
