/* XPM */
static char *door[] = {
/* columns rows colors chars-per-pixel */
"64 63 201 2 ",
"   c #7A786F",
".  c #7C7B72",
"X  c #916F6F",
"o  c #956E74",
"O  c #996F74",
"+  c #807E76",
"@  c #8E7E78",
"#  c #9B7374",
"$  c #9A7877",
"%  c #9A7379",
"&  c #947F78",
"*  c #9C797C",
"=  c #A07677",
"-  c #A2747A",
";  c #AC757E",
":  c #A3797C",
">  c #AA7A7E",
",  c #B0787F",
"<  c #85847C",
"1  c #8D837C",
"2  c #87887E",
"3  c #8A887F",
"4  c #928177",
"5  c #94857D",
"6  c #99857C",
"7  c #95897F",
"8  c #9A887F",
"9  c #A4807B",
"0  c #B16F80",
"q  c #AF7581",
"w  c #A47B81",
"e  c #AB7881",
"r  c #B57684",
"t  c #B27B82",
"y  c #BA7A82",
"u  c #B57689",
"i  c #BA758A",
"p  c #B67888",
"a  c #CB7995",
"s  c #D77C9D",
"d  c #E37DA7",
"f  c #8C8682",
"g  c #8D8C84",
"h  c #8F8688",
"j  c #8F8D89",
"k  c #948682",
"l  c #988786",
"z  c #948B84",
"x  c #9B8B84",
"c  c #918789",
"v  c #958C8B",
"b  c #9B8E8A",
"n  c #8F9087",
"m  c #919186",
"M  c #9A9286",
"N  c #93928B",
"B  c #9C938C",
"V  c #9F988D",
"C  c #978D90",
"Z  c #998E91",
"A  c #959491",
"S  c #9C9493",
"D  c #9D9893",
"F  c #9F9498",
"G  c #9D9B98",
"H  c #A48181",
"J  c #AA8384",
"K  c #A18C85",
"L  c #A38E89",
"P  c #BB8985",
"I  c #B68189",
"U  c #B58789",
"Y  c #A39086",
"T  c #A2948C",
"R  c #AA938E",
"E  c #A49B8D",
"W  c #AA9A8D",
"Q  c #B4908C",
"!  c #B9948C",
"~  c #B0988E",
"^  c #A09691",
"/  c #AE9591",
"(  c #A29B93",
")  c #AA9D92",
"_  c #A19599",
"`  c #B19693",
"'  c #BD9591",
"]  c #B49A95",
"[  c #BD9E91",
"{  c #B59D98",
"}  c #B99D9A",
"|  c #A7A08F",
" . c #A9A08F",
".. c #A7A096",
"X. c #ACA494",
"o. c #ABA499",
"O. c #AEA89D",
"+. c #B0A796",
"@. c #B2AA96",
"#. c #B4A49A",
"$. c #B9A49D",
"%. c #B5AB9B",
"&. c #BAAE9D",
"*. c #B9B09D",
"=. c #AAA8A5",
"-. c #BBA7A0",
";. c #B7ABA0",
":. c #BAADA3",
">. c #B3ACA8",
",. c #BDB1A6",
"<. c #BFB2A8",
"1. c #CB8594",
"2. c #CC829B",
"3. c #D0839A",
"4. c #D68B9E",
"5. c #C19090",
"6. c #C6A39D",
"7. c #DC83A3",
"8. c #E185A5",
"9. c #E38CA1",
"0. c #E585AA",
"q. c #E986AC",
"w. c #E58CAB",
"e. c #EA8CAE",
"r. c #E592A1",
"t. c #EB95A2",
"y. c #E790AE",
"u. c #EB93AC",
"i. c #E59BAD",
"p. c #ED9AAA",
"a. c #F39BAE",
"s. c #ED8EB1",
"d. c #EC92B1",
"f. c #E398B0",
"g. c #ED9AB2",
"h. c #F394B5",
"j. c #F49AB5",
"k. c #F99FB7",
"l. c #F69AB8",
"z. c #F99DBA",
"x. c #C2ADA4",
"c. c #C2B3A6",
"v. c #C3B4A9",
"b. c #C6B5AA",
"n. c #CCBBB2",
"m. c #C3BEBA",
"M. c #EFA4A7",
"N. c #E6A9AD",
"B. c #E9ADAE",
"V. c #F9AAAE",
"C. c #EDB7A5",
"Z. c #EEB9A6",
"A. c #E5B5A9",
"S. c #EBB1AE",
"D. c #EFBDAE",
"F. c #F9B0A7",
"G. c #EDA3B1",
"H. c #EBACB4",
"J. c #F6A3B5",
"K. c #F4A5B6",
"L. c #F3ACB4",
"P. c #FDA4BE",
"I. c #F5ADBA",
"U. c #FCACBB",
"Y. c #EBB7B6",
"T. c #EEBFBF",
"R. c #F3B5B6",
"E. c #F2BDB3",
"W. c #F5B3BB",
"Q. c #FAB2BA",
"!. c #D1C1B6",
"~. c #D4C5BB",
"^. c #F1C2AA",
"/. c #EEC0B4",
"(. c #F2C2B4",
"). c #F2CBB5",
"_. c #FAC6BD",
"`. c #F3CABB",
"'. c #F5D5BE",
"]. c #FEA5C0",
"[. c #F7AEC7",
"{. c #FCADC1",
"}. c #F9BBC4",
"|. c #FABDDF",
" X c #DBCCC2",
".X c #F6C4C3",
"XX c #FBC2C5",
"oX c #FACAC6",
"OX c #F3C7CB",
"+X c #FDC5C9",
"@X c #FCCDCB",
"#X c #EFD1C0",
"$X c #F5D5C4",
"%X c #FCD2C3",
"&X c #F5DAC4",
"*X c #F8DCC7",
"=X c #FCD0CE",
"-X c #F8DEC9",
";X c #F9C6DC",
":X c #F4D0D3",
">X c #FDD4D0",
/* pixels */
"/ ` ] ] ] ] ` / / / / 5 f n m n m m m m m m m n 2 m 2 2 ....o...o.O.O.o.......( E ( ( k b k x z x k k M b b B b b b x 5 / ` ` / ",
"] ] ] ` / ` / H & k 1 < 2 g n n m m A m N m m 2 2 3 2 E o.o.O.o.o.o.o...( ..( V k z z B x z k k k b b B T b b k 5 k k / } / R R ",
"] ` ` ` ` / ` x   + f f g n m m m n m m N N N m ..O.o.o.O.o.o.) D ) ( ..( ( ( M b B b x x z x x b b b Y L B b k R } } ] ] ` / ` ",
"K L / ` ] ` } K . g g g n m n N m m m m m N m n | ....o...) m z N B ..o.o.( ) m k b z b b z b x b b T B T T b z L ` / ` ` / L x ",
" .Y ] } ] ] ] K + 2 g n m m N N N N N N n g g < A | ......V B ^ ( D V o.o...D M z b b b k b k k x z b b b T Y z K ` / ` / R x W ",
"@.X.` $.} ] } K + 2 g g n m m N n n N N n n g f | o.o.o.O.B ^ B T ( B o.o.o...M z b x x x b k b b x b b x b b k L ] ] ] ] R E +.",
"@.W R ] ` ] ] K   < 2 < 2 3 n n n n g g n g f < V ( ....( M V V V B M ..o.( D m 5 5 5 1 5 k z b b b b z z l k 1 K ` ` ~ ~ R E @.",
"@. .Y Y Y W W x + 2 f f g 2 3 m n < < g f g f f g g z M m z M b B V z M B M z 7 b M M b M z 5 b b z x T T B Y B x K Y x Y Y W +.",
"@.@.@.@.@.@.@.| N A A G G j g m n g A G G G A A B ^ ( ^ T B z B B V ( T V B B z &.<.,.,.,.o.5 k k k ) <.,.,.,.:.E  .X.@.X.@.@.@.",
"| @.X.X.+.@.%.| j A N j A j 2 n j < j G A j A j B T V V V B B V T B B B B b b k #.<.,.:.,.o.1 b B k D :.:.:.:.;.T X.X. .@. . .X.",
"| @.X.| +.@.@.E N A G G G A < f < . A A N N N j z B V B b z b b B b B B V B T z O.,.:.:.;.:.k 7 k k O.:.:.:.:.%.E @.@. .X. .X. .",
"X.X.X.X.@.@.%.| A A G A A G N < f A A N A A A A z b z b B B B T T D V ( D V V z X.;.;.*.&.,.,.V B %.,.;.;.,.,.;.E @.@.@.@.@.X.X.",
"@.@.@. .+.@.@.( j G N A A j A A A A A C A N A z B B T V V V ^ E ( E ^ T V B v k #.<.,.;.&.;.:.,.,.,.,.:.*.*.&.%. .@.@.@.@.@.X.X.",
"| @.@.@.V N B B N j v A A A A A A A A A g z N z B B V X.$.W K 6 6 H 8 z k ) #.X.,.<.,.,.:.:.,.,.:.%.%.#. .|  .X.@.@.*.@.@.X.@.X.",
"@.@.@.| D G A A A A A A A A A A A A A j B D B B b V L 9 e u y 3.4.1.r ; * ( &.v.<.,.,.,.,.,.<.<.c.,.;.o. .@.@.@.@.@.@.@.*.*.@.@.",
"@.@.@.V A G A A A A A A A N A A N A A z B B B ^ ) 9 ; 7.M.k.0.P.F.j.0.j.7.2.w Y c.,.%.&.;.:.,.,.,.:.:.+.8 X.X.@.@.*.*.@.*.*.*.@.",
"X.@.@. .n N A A A A A A A A A A A A A A v B E ~ > 3.e.P.j.k.q.P.P.l.q.l.e.V.u.p U c.:.;.:.;.;.,.,.,.&.;.) X.+.@.@.*.*.*.@.*.@.@.",
"@.X.X.@.| m m g N A A A A A A A A A A A A v R - 4.V.h.P.P.P.d.P.P.h.q.l.s.z.J.j.1.J :.:.&.,.;.,.,.,.,.,.<.X.E E  .@.@.*.@.*.@.*.",
"@.@. .@.@.%.%.| A A A A A j j j v N A G _ %.> s l.k.h.P.P.P.h.P.P.z.q.z.h.P.z.j.M.i Q v.,.,.,.,.:.,.,.:.<.<.,.:.E @.*.@.@.*.*.@.",
"@.@.@. .@.@.@.V A D D G A j g S D v A D >.' a s.z.z.h.P.P.P.l.P.P.l.e.P.h.P.P.z.P.h.r b.<.,.#.V V X.:.:.:.:.:.%.E @.@.*.@.@.@.*.",
"@.@.X.X.@.@.@.E A D D A A j :.v.b.o.v A b.r h.h.z.P.h.P.P.P.P.P.P.z.s.P.l.P.P.z.P.l.7.Q !.%.b v B z #.,.:.,.:.;.| @.@.*.&.*.*.@.",
"@.@.@.@.+.X.@.| N A A A v N <.<.<.:.N =.6.a P.l.z.P.h.P.P.P.P.P.P.z.d.P.l.P.P.z.P.l.h.e x.o.k B B v ( ,.,.:.:.%.E X.@.@.@.*.*.@.",
"@.@.+.+.@.@.@.| j v N N j N :.:.:.;.g m.5.7.P.l.z.P.l.].P.P.P.P.P.z.h.P.z.].].z.].l.z.q ~ %.v ( D N ) :.:.:.%.;.| X.@.@.@.*.@.+.",
"*. .M M M 7 M m V D D D D ) <.<.:.:.( ~.I 0.P.z.P.P.l.P.P.P.P.P.P.z.h.P.].].].K.P.H.W.u 8 ( D ^ D B ^ ^ V B V T M 8 M E T M W @.",
"*.@.m N v B v k &.,.,.,.,.,.,.;.:.<.<. X, 0.P.P.P.].l.].P.P.].P.P.J.h.P.P.P.P.P.E.(.(.I 4 D B B B B B b B D S B 7 V D V S z X.@.",
"@. .v V B D v k ;.;.;.;.;.;.%.;.;.:.:.~.! T.@X=X@XoX:X>X>X=XoX=X>X@X.X@X=X=X%XoX%X)./.I 5 B D B D D D D D ^ ^ V f V D V D b E X.",
"X.B B V S B N z :.,.,.:.:.:.;.;.:.:.,. X$.'.$X&X`.C.$X$X$X`.Z.$X$X$XZ.`.$X$X$XZ.`.$XE.P k D B B B B B D D D D D z D V D D D B | ",
"M D ( ( ( D S z >.:.:.:.;.;.%.;.;.%.;.~.t 7.d.d.d.e.s.d.d.d.d.d.d.d.e.d.d.h.d.e.p.H.S.I k D D D D B B S S b B b g D ( ( ( ( V M ",
"( ( ( ( ( D b f o.#.%.%.#.%.#.#.;.;.:.~.r 0.P.K.I.{.L.P.P.P.P.P.].P.P.].P.P.].P.R.E.(.U 5 ^ D B v B D D D D ^ D 1 v b D ( ^ ^ D ",
"( ( ( D D D S z z z v ) ;.%.;.;.:.:.,.~.e 0.P.N.[.;X:XH.P.P.{.P.P.].P.P.P.P.P.P.P.I.I.p k ( ^ D V B V S ( ^ ( ( B S B z V D B B ",
"B D B D V D ^ D D v z z #.;.;.:.:.,.<. Xt 0.U.D.[.|.oXE.P.P.P.P.P.P.P.P.P.P.P.P.P.P.P.i 5 ^ B D ( ^ ^ ( ^ ( D D D D ( ( z D A B ",
"B D D D ^ ( ( ( D D B f #.:.%.;.:.:.,.~.; 0.R.E.S.H.D.(.W.P.P.P.P.P.P.P.P.P.P.{.P.P.P.i 5 ( S B S B B D D ( ^ D B v N B h B A B ",
"D D ^ D ( D D B z v f f ;.o.#.:.%.;.:.n.t 7.R.E.B.A.S.E.R.P.P.].P.P.P.P.P.P.].P.].z.].i k ^ D D ^ ^ E D D D D B B v v z N D b D ",
"S B B V D B B f z f z ;.;.;.:.:.:.<.:.~.q 0.}.#XN.OXY.`.P.P.P.].P.P.P.P.P.P.P.P.P.z.P.i 1 B B S D ( D ( ( ^ D B 1 f k b D B B V ",
"B D D ( ( ( D k %.%.%.#.%.%.:.:.:.<.v.~.q 0.}.g.7.f.e.}.{.P.z.].P.P.P.P.{.P.P.P.P.l.P.i 5 D ^ ( ^ B B ^ ^ ( ( D f S D D S D B A ",
"f z D ( ( ( D z ;.:.;.#.%.;.;.;.:.:.:.~.q w.}.I.z.l.P.}.G.P.J.P.].P.P.{.P.].P.P.z.l.P.i 5 D D ^ ^ D D B D ^ V N z D D B v v k f ",
"F c N ^ D D B z :.:.;.#.#.;.#.;.;.:.:.~.q 0.W.XX].].{..Xe.P.l.P.P.P.P.P.P.P.P.P.P.h.P.i k ( ( ^ ( ( ( ( D B b v z ^ ( ( D v z F ",
"F S l D D D B z ;.:.:.:.:.:.:.,.<.<.v.n.q w.l.H.oX+XoXf.q.P.l.P.P.P.P.P.P.P.P.P.P.h.P.i 5 D ( ( ( ^ ( ( ( ( D v f D ( ^ V z A F ",
"F C g S B v k 5 :.:.:.:.:.:.:.:.,.,.:.n.q w.].0.w.f.7.0.z.P.j.P.P.P.P.P.P.P.P.P.J.G.R.p @ S B B D ^ ^ D ^ D B B f B D N b g Z _ ",
"F Z z z h h f f E ) E ^ E Y ;.;.%.#.B x.r 0.].P.h.q.h.z.P.z.j.P.P.P.P.z.P.P.P.K.R.E.E.p & z B ( ^ V k b x x x z f h c c c c F _ ",
"F F _ _ F F F v ..X. .X.E T :.%.:.;.V c.P Y.+X+X+X+X+XoX+X+XW.+X@X+XXXXX+X+X+XT._.).E.p K T ^ ( ( ( B { { ] { / b S F F F F Z F ",
"_ _ _ F F C F v | +.X.X.X.E :.:.:.;.E c.[ &X-X-X'.^.*X-X-X-X^.&X-X-X^.).-X-X-X).).'.(.P K ) B ^ ( D Y { $.$.#.^ v S Z F F Z F F ",
"_ F F _ F F D C W %.@.@.@.E X.:.:.) X.b.t 7.y.y.e.8.w.y.y.e.7.y.y.e.w.w.e.y.e.w.i.S.S.t K ] b D D b / #.$.#.{ / c Z Z Z F C C Z ",
"F F Z Z S Z F v E X.O.+.@.O.) E E ) o.b.q 0.].l.P.z.a.].].P.u.P.P.l.l.h.l.].J.a.E.E.(.I K #.] T b ) { { #.$.$./ c C c Z C c C Z ",
"F F F F C c Z l X.%.%.%.o.X.W X.X.+.@.b.; 0.].l.z.z.a.P.P.P.p.P.P.l.j.h.l.P.P.s.j.i.R.i K ] #.} $.-.$.{ { ] ) R c C C C C C C F ",
"_ _ _ _ b S E ^ o.&.&.&.%.@.X.o.#.@.@.c.; e.P.u.P.z.u.].P.z.p.P.P.j.u.h.l.P.k.e.h.d z.0 L $.$.$.$.{ { ) L ^ ^ Z Z C C C Z Z C F ",
"_ _ _ Z X.X.X.o.O.@.%.%.@.@.X.X.+.+.X.&.; e.{.p.J.a.e.P.U.J.t.P.P.a.u.j.j.Q.k.q.l.q.U.a K $.&.x.;.-.{ / Z _ Z F Z Z C C F Z Z S ",
"F Z D v ) X.#.@.+.#.@.%.%.%.#.@.%.%.#.&.; 8.l.9.t.r.9.l.p.t.r.j.l.u.4.w.u.t.u.7.e.3.t.; K $.-.-.-.$.#./ Z F _ _ _ F F Z S F S F ",
"Z F Z Z B X.X.X.@.@.%.&.%.%.%.%.&.%.+.X.4 H J w : * $ % O X X o O # # # = = : : w w w $ R #.$.$.-.$.{ / b F _ _ _ F Z C Z S S S ",
"b c Z F D Y T T #.@.@.%.%.%.%.%.@.@.+.o.T 8 8 5 7 8 5 5 7 4 4 5 6 6 6 8 R K K Y ] x.b.n.x.$.$.$.-.-.$.-.{ Z F l v F F Z F F Z Z ",
"C C Z Z _ _ _ b o.%.@.@.@.@.O.+.@.O.@.O.@.O.X.M M 9 x x 8 6 6 6 4 6 8 8 K Y Y x L { -.-.$.$.$.#.{ $.-.$.$.$.] R Z _ _ Z C Z F Z ",
"S S F F _ _ _ Z X.%.&.%.%.@.E m M ..@.@.&.%.@.M 8 K x 8 6 6 5 5 6 8 8 8 8 x Y x L $.-.-.$.$./ L T b ] #.$.$.#.W Z _ _ _ C Z Z Z ",
"Z F F F _ _ _ Z X.%.%.%.&.E f n m 7 X.+.@.@.@.V 8 x 8 K x K 8 8 8 8 M 8 x 8 x 8 L $.$.-.$.) b ^ T B R $.$.#.#./ Z _ _ _ Z C C Z ",
"Z Z F _ _ F _ Z X.*.%.@.%.N 2 g n 3 | *.%.@.@.8 8 Y K Y K Y K 8 6 8 x 8 x 8 8 6 b #.$.$.$.E b L L ^ R #.$.$.{ R Z F F Z S C Z Z ",
"F F C Z Z C Z C  .%.%.%.*.V 3 N m 3 X.%.%.@.*.V 8 K 8 K 8 8 8 8 8 8 8 8 7 4 5 4 b ] $.] { R b b T b b ] ) ] / T b C C c C C Z C ",
"F c b b b b L l 3 M M M M M m N m n m m M M M 3 8 7 7 7 7 4 8 M 8 4 @ 7 5 1 4 4 k Y B Y b b b L b b x x x l x k b b l b b l h F ",
"Z j ` ] ] ] ] L < n m m n n n 3 n g m 3 m n m m V ( ......7 K K x 6 3 V ( ( E m b T T ^ R B B b b b b T B b b z / } } } ` R l C ",
"C w / ] ` ] ` K < n n m n n n n g m n n m m m 2 V ) ....( x x x x 7 7 ..o...( B z B T b L B T b T B b b b b b k L ] ] ` ` R w Z ",
"h c ] } } ] ] K < m m m m m m n n m n m m m m m D ( ( ....V 7 x 8 5 B ..o.o.o.B z T B Y B b ^ T b b B b b b x 5 R ] ] ` / / h h ",
"Z ] ] ] ` ` R x < 3 m m m m m m m g 3 n n n n 2 V ......o...D k 8 B ..X...X.X.m b T T B T T L b B L b b b x x k R ] } ] / / ` Z ",
"` / ` / ! / ` x   < 2 3 n m n n m n m m m m m n V ( ....o...( ..( ( ( ( ) ..( N x b x B b b B B b b B T b b b k L ` ` ` / ` ` ] ",
"] } } } ] ] ] R x T x < n m m n m 3 m m m m m m M N m V ..o.o.o.o.o.o...( ..( ( z z z 7 b b x b x b b b b b b b K l x l / / ` ` ",
"] ] } ] ] } ] ` } ] #.x 2 m m m N m N N N N n N N n m M ( %.O.%.O.O.O.....o.X.....( ( b k b x z x b b b z x b x b x b k L } } ] "
};
