/* XPM */
static char *Pale_Wooden_Puzzle_Flooring_[] = {
/* columns rows colors chars-per-pixel */
"64 64 72 1 ",
"  c #7B766E",
". c #7E7C73",
"X c #837C75",
"o c #8D7D74",
"O c #867F7B",
"+ c #8B7E79",
"@ c #828177",
"# c #898176",
"$ c #84847A",
"% c #8C837C",
"& c #8B897E",
"* c #95847C",
"= c #98877D",
"- c #918B7E",
"; c #9A887F",
": c #8E8583",
"> c #8D8D83",
", c #8E8C89",
"< c #938681",
"1 c #9A8782",
"2 c #948B84",
"3 c #9B8B83",
"4 c #938689",
"5 c #958C8A",
"6 c #9B8E89",
"7 c #8F9085",
"8 c #929186",
"9 c #9A9386",
"0 c #94928B",
"q c #9C928C",
"w c #9E998B",
"e c #978C90",
"r c #9A8E92",
"t c #959491",
"y c #9D9493",
"u c #9B9996",
"i c #9F9398",
"p c #A08D85",
"a c #A48D89",
"s c #A88F8C",
"d c #A29085",
"f c #A2938D",
"g c #AA928E",
"h c #A39C8D",
"j c #A89F8D",
"k c #A09792",
"l c #AD9591",
"z c #A39B93",
"x c #AA9D92",
"c c #A19599",
"v c #B19693",
"b c #B49996",
"n c #B59D98",
"m c #B89D99",
"M c #A9A18E",
"N c #A6A092",
"B c #ACA394",
"V c #ACA39A",
"C c #AFA89D",
"Z c #B0A795",
"A c #B2A996",
"S c #B4A49A",
"D c #B9A49D",
"F c #B5AA9B",
"G c #B8AF9C",
"H c #B9B09C",
"J c #BDA7A0",
"K c #B7ABA0",
"L c #BAADA2",
"P c #BEB1A5",
"I c #C0B3A7",
"U c #C1B3A8",
/* pixels */
"vvvlvbbbvvva&>8877777777777&zVVVVVVVVzNzzzz22651515666ffay5+lmbv",
"vbbbvbvgasa%&>8880808877$$@7VVVVVVVVNVVz9qw12<<112566651<<<abvgs",
"bbvvvgvdXXo$&>>7888800070uwNVVVVVVzzzzu95666215165a6aq6<sllmbvvv",
"sgvvvvbgXX&&>78088788087NCNCVVk98wNVBzz01615611566faf6a<lbbvvvss",
"fpvbbbbg.&777078808877>>wNNNNw8fy9zVVzz01661651566aff66<svvlss1f",
"AMvmbbbs@&>7800080088>>$uNVVVyfqkzwVBzz9666112<11115f6a1svvbbsjB",
"GBlmmbml.$&&7788700088>>uBVVVwffffqVVVV65621151656p6566+sbbbbgMA",
"AMdsslld .@@@$&777$$$$@@798q020qq92qq99%++++++<666<*<<*+;ssdsdjA",
"AAMMMMZM7tttu,>07>,tuttt9qqfqq69ykzfkqq2SKFFFz<55<zKKFKVdj;MMMAA",
"AAAAAAGB,00tu,>7>>,uutt0qkhkq96qqqqwq96-FILLLx*<1<BPKLPSjBZAAAMA",
"MMAMAAGM0ttttt$>>@,tt0t,5ffqqq9qqq9qqqq2KPPPPV%66<VKLLLSjZMMAMZM",
"MAMMAAAM0tuuuu>@@:ttttt,2609626wqqqfqfk2SLKKLPh&*fPKPKLFjZAZMAMM",
"AAMAAHHZ,t0tttt0ttt,ttu02qqqqfqkkzhkfqq2FPGKFKPLKPPKGIIFMAHAAAAM",
"MAAANhNw,tttttt0tttt0,4:9qkfqqkfffkf6992KPPPKLLPPKKFAMBjMAHAAAAZ",
"ZAAAtututttttttttttt,qqqq6w99qqqqqq5fLPPPPPPPPPPPKFVjMAAHAAAAAAA",
"AAGMuuttttttttttttt,qqqq9qqqwfqqfqf9GPLPPPPLLPPPPPKBMAMAAHAHHHHA",
"ZZAM9ttttt0tttttttut5qqq60q92965q662SPLLLKGKKKPPPPKVjAAAGGGGGHGA",
"ZZAAw7,7tttttttttttu52q296666626q529qVFxCKKFKGLPPPPPBhMMAGGGAGAA",
"AAZZFZNw5ttttt0tttttuuy05qqq5599966ykhw<BKPPPLKPPPPPUPGVMAAAAHHH",
"AAMZAAAB0uutt,,:,,tuuut59hfq9q66q99fhkk2FPPPPPPSCLLKKPLVMAGGGAGG",
"AGMBZAAMtuuut,yLLy5uttu0qfqqq969qfqqfkh9KPUPPLq58fLPLPPFMAHHHAHH",
"AAAZAAAM5uutt4LIPP,tuuu09fkkkkqqqkfqqqq6VPUPPV2502VPPLLCMAAAAHAA",
"AAAAAAAZ0tutt5LIPLtutuu0qzzkkzf6qfqhqqq1FPUPPV2yq5VPPLKSMAAAAHHA",
"AAMMMMMh>:,,,2LIPK:,,,,:196962wqqq221->>VFFFFV6zz6xVBBVxMMBBBMAZ",
"HA82222:VKKKKLILLILLLKKS289w8-hqq62ww99809qqqyywyyq969qq&9qqq2BF",
"HA8qqyq>SKLKKKKKKLLLLPPK2wNNN9kf998NMNM9qyyq0qyqqqtqyyy5:wyzu9ZA",
"AM9kkq0:FLLLKKKKLLLLLKKn-NBBN9wzy18hwMh8qzkkyyyqyqyuzyzq2qqqq9MB",
"hwqyqyy2KPLLLKKKLLLPLPPK-wNNhh2818hNNhh8qzkkzyqkyqqqyyyq5uzuzq9h",
"quzzzuq:VLLKFFSKKFJKLLPS$9wNNNNwwNNNNNN8wuykquqyqqyyyyyq2yuzzzyq",
"kzzkkkq2fkzSSKSKKKLIIILm&-29hNNBNhhhNwM-222yzkkqqqykzkkq&529yzyy",
"ykqkyyyq522qKSKKLLILILLIHIPw9wNwwwwNMww99w82kkukkfkkkkkzkzz5qyq0",
"9ykykzkkqy6:nKKKLIIIIIIIUPLS8NMNNNhwwNwwwNhq9qqyqukkkkkyt6yy2qy5",
"qkkuuzzkqt5%nFSKKKKIIIIIPPPCwNBBNNhNhNhwhMN8qkkqyyqyquktqq552y0q",
"yyqwyqy5O:OqKKKLKJLLLLPLGPGwwBNNBNNNNwN8-8-8yqqukzkzkkqq<522kqqy",
"kqyykky2xxxKKKKLLILIILLS298whNMhNNNhMww-250yqqyyywukkzu6%20yyqyy",
"<0yzzzy2VKFVKSLLLIPIPIPK89wwNNw--wwwwwN-5qqqqkkkkyfqkkk64uyqqq2>",
"t<6zzzy2KPKSFJKSFLILLIPS-wNNN9&;-&--www-5qqqkzkkkkyyyqy55zzkt2:y",
"cc5tyyq2SLKKFKKKLLIIILLS-wNNw*;d;M-jwwN-59yykkkzzzzzky022kzzy2ri",
"ir<ykyt<JILJLLLLIILILKFB&99hh-;;;;-wj-w-20qqqyykkzzzzzy5:yuqy4ii",
"iy:::<OXzFSVSnLKKKxlxxBM#&---#;=;;#&&&&&:46025qyyq566222%2:2:Oic",
"iiyciir5hxhhg9FKKK9hhhhd;;;p;;=*;h;;=;;*pllxl6yzzf6lllla5rririir",
"cciirrr6hBBBBhKKKLfBZxM3;;;dp;==;;;;===*fDDnnfuqzkfnSnSkeiiiiric",
"cicccrirhAAVZhFJLSzSFFB9=;;;;=**;;;;=;p;fDDDDltkz6kSSSSa5rrrrrri",
"iiiiiirrfBFFSBxVSxBFFZZ9*;;;====;;d;pp;=pnDSSnf96qnmSmmseeeererr",
"crrrrrirhZFSSBxhhBZFFFZd*;;;;;;;;d;dd;3;aDSnnSnbxSmSSDSk4eereerr",
"ccccr454zGGFFZBBZSFFj99*=;;;;;;;;;d;;;=*lDJDSnSDJmSnlga1errerrrc",
"ccccrxBBAFGFFFBBZBBj;d13;=;;;;=;;;;;=fjbDJJJDDJJKmnk6ciirerrrrri",
"ikcrhZZZVZSFFVBBFSZh31;;=;;;;;==;;;;9bmSDDDDDJJJJKmariiirrrrciir",
"rrirdBBABFFFGFFFFFFh*1;3;=*=*****=**1SmSSSnSmSDDJmnfrcccccrririr",
"rrriqfBxBSFFFFFFFFBB;=;=;;*****o***=11pplmSmSmDJJJSncrcricrrirri",
"ee6erccfBFFFFZVFFASBBhf-=;;;====*===ddp3anSDDDSKJJKJDxl56ciririr",
"rrricccrzFFAFFShzZFFGFZf;pp;==*=*===ppd;aDJJJDbggnSmmSnfrcirerrr",
"iriicicrzFFFFV8279BBFFAw;d;;;;;;=;;;;pp;fDJJDxakf5lDSDSgiiiirerr",
"riiiccciBGFFFh&>>&hFSZB9;;ddddd;=;p;11;=aSDJDg6ffagDDDngriiirerr",
"rriciiirxFFFFw$78>hGFGFhppp;d;;;=;;p;;=*dDJDDa5kfggSSDbfrirrrrrr",
"ir4444449MNMBh708>hhMNM9=====*;;=**=*ooo1fggsp6665<papp144:444rr",
"irsvvlvg%>78>8887777&77-qqqqq=;p=*#099946gffffa6666q6a61vbvvla4i",
"e4svvvbs@77777>777777787qzBVN2dp;=2zzxz556aqqaqaqa6a665<gmmvvaee",
"r:gmmvvs$788878777780888uNzVz9;6p*3NVVB91faf66f66a66665+gbvvla4e",
"4rmbmmvs@888887777777787wzzNBz2**;zBVVV95fqfkaf6666a651*vmmvsve:",
"gvvvvggs@>>8887777777777qBVVVVzywzzzzNz56fqa6fafyaf6561<lmbllvbv",
"vvbvbbvsX#$$7887777788879qquzVVNzzVNVzz9*-<5666656qa6a61asslvvvv",
"vmmmmbbvbbb-&80888888880w888VVCCCCVVzzVzkky251515661661a144pvbbv",
"mbbmbmbvblvf@>77880000877788zCCCCCVVVVBVBzzq1661666q6656a411smmb"
};
