/* XPM */
static char *perso[] = {
/* columns rows colors chars-per-pixel */
"64 64 7 1 ",
"  c #613C20",
". c #684024",
"X c #6F4527",
"o c #754A2A",
"O c #784D2D",
"+ c #7C502F",
"@ c #835432",
/* pixels */
"oX. OX..XX.O  .X.Xoo..  O+ooX...XXoOXX  XO+@.X.XX.  .XoXX. .@OXO",
"..oX. oo .XXoO..OO X. .o.oOO.  X@+.. .XX .oOX...O XXoo+OXXoOoXo.",
"XOX.o+.XOoOO.XoO..X.ooXX  XXoXX  XoOoXoXXX..XooOoo..OOX.Xo@+Oo+O",
"..oOOo+@OOoXX.. X.  +O...X .X.XXX..oOOXX .+@.X. +OOo..Oo+@OoX..X",
"XoXoX...oo+OO.XoOoXooXooX..+OOoo..OO.X..oooO@+XoXX .XX..  XXXXOo",
"+Oo.o.oXO+OoXX..oXOO.ooOO+@oXX.XOO+o .XX  oX .... XXoXoX... ..XO",
"Xo..XoOOX oXoO@OX  X+@Xo..X.o@Oo..o+Oo  XXX Xo@OX.OO..oOXXO+. O+",
"OOXX+O .OX.X.X.  ...oO+OoX  XoOOooXX.XX.Oo... . OOXXXXX.OOoXOX o",
"XXoo  oOoXo.  XoXXoo.. .O+OOoO  .XOo  ooXX  OoXo.XoO@+oo+oXXooXO",
"oO.XX.XXOoXXoX  ..X.XXoXXooX ...XO. O+XXOOOOoX  ..OX o@+.XOo@+o.",
"XX  oO+o..oX..XXoX  .o..  ..oX X XOOoX..oXoO@oXXoX ..Xoo+o. .X .",
"  XX. o+Oo  XX... .. .o+ooX.. XoO.Xo.o.oO+X.XX..X Xo..  ..o.  Xo",
"X.@+OX..XXoOOoX.Xo+@oOX.+@o XO..XO...XoXoXooOOO+... XooXXoXX.X..",
"O+oO..+OoX.X..XoOOooXXo+oo+@OoX..X@+oOOo..XX.XoX  OoOO+O. ..ooXX",
"o. .@+.XOOXoOOoX  XOXoOO.XXXXXOO@OX.+o.XOX XXo@+OOoX  XoO+Oo... ",
"X.oooO+@o.O+XXOOX. .+OXXOo..OO.X..oo .Xo..X  . XoO@o.X..oX@+X  X",
"oOX..X  O+X.  XX. .. ...XoXoXX ..X..OO..Xo...XXOX.XXo@+OOoo.OOXo",
"..Xo .X.XoOOXX. ..XXXX  ..XX. XXo..XX.  .X.X  ..ooOO+..XooXooXoO",
"oX..oOOo  XX..oOoo.XoO@+oO..oOO+Oo .XXoO..OOoOooXX.X. X...O+  .X",
" .XX..++o. .XX..X.oO+@oX.XOO..oo+OOoOO.XoO..oo.  XXoXX  XXoo.X..",
"+OooOoXO@+OoOoXOO+XoOoXXO+ooXX OXXOOoXX.. X...X.X  .OOo.o. .X OO",
"XXO+XXOOXoOOXXooXXO@XX  .oX.  .X..oo+OO.XoOoXX+@...Xoo+O  ..ooX.",
"..XoOOXo..XooO.X. XX. oOo..X..XooOO+OoXX..oX .X.o+XX. oOo..X..Xo",
"oO..X.OOoO..oo@+XX .XX..XX  oO... X oXoO@OX XXooOo .XX..XX  oO..",
". oXOo .XoO+. .X..XX.XOoOo@+XXoXXXOX.X.X.  .+OOXX.XX.XOoOo@+XXoX",
"XX..  oXO+XXX. .XoO+OX.X+@XXoo. OOoXo.  XoXX.X..o.O+OX.X+@XXoo. ",
"OOXXoO..oXOo. ooOX..oOoO..XOXXOoX.OoXXoX  ..ooOoXo..OOoO..XOXXOo",
"X.oOXoO@+OXOoX..  ooX.XXoo .O@+OXX..oX..XXoX.. .+OooX.XXoo .O@+O",
"XX.XOOX. .o..OOX@@XXoo.oOOoX  XooOOo  XX...  .XX  XXoo..OOXX  Xo",
"oOOoooOoXoXXOXX oOoO. XX.oOOoX..OXXXoOOoX.Xo.XOOX.oO. XX.XOOoX..",
"OX..Oo..XX. ..+@.X..OoOOX.. XXoOX oX.X..XoOO  XooO..OoOOX.. XXoO",
"X XoXOXX  XoOOoo .oo.XX.  .XoOXXXoOOoXOOoX. X.  .XXXXX .XoOOoOXX",
".Xo. .+OoXoOOoXXooXXXX+OXoOOX.XXoOOoX.oX..O+Oo+O  .XooXO. .oX.  ",
"oXXooo..OoOoo+oO. XX  .X+OoooOOo..  .X..X .X.Oo.o. .X. .XX. X .X",
"XOX.OooX..XooXXoOoOOoXOOoXoO..XOOo.XXoo  XXoXXX. .o.XO+oXoXXooX ",
"..oOXXOOoXoOOoXXoOo...XX  OXoX XoXoO+OX.oOO.  O@+OXOoXO+Oo.oOXXX",
"XoXooOoO+@OX. ooX.  XX. .X.O .Xo..O+OX.O+ooXX...oXOo. X.XO+O . o",
"+Oo.XX. .o++OO X. .ooOoO+@X .o..X .XX.   XXoO@oXO+XXX..X..o XoX.",
"Xo.  .XX  oOXoX.ooXXXXOoXo+oXXOX XX. ...X. XXX .XoO+.  oXoX.. oo",
"ooOoXXOOoX.X..  +O..OooX..o+Oo..XXOoOoo.XOOoX OOoO..ooO .XX OoOO",
"Xo  ..XX+O  @+XooXooO+X..X.XoXoXooo..X.OOoX  OoX..XooO@+XXoOo . ",
". oOXo ..X@+X.OO.ooOoO+OXo.o.oO+X.XXo@+oXX..XoOOXo+OXX.X. XO+@X.",
"OO.X..OoOoXX.  X+@XoXo XOOoX..oXo+Oo.X..oO@O..XO+@OoOoooXX .X++X",
"oXXOoX..XX o+O..oO+OX.XO. O+XXO+@OX.  Xo.X. .X+Oo. .XX .O+.o..Oo",
".OoXXOXX .X .ooX.. ..oXoOo .ooXX  Oo..+O  Xo +Oo  XX. Xo..X..  .",
"oXXoOoO+XO+OX.X.XXoXXXoOXX.XX.Oo... OOoXoX  OXX.XoOOXooOOo.XX.X.",
"+o..XX. +@O..o  .o..Xo..o+Oo  XXX Xo..  ..XXXX  O+X.  . ..XoXXO+",
"oOOo..Xo. .@+OX. .o+  oO+o .XX  oX ..XooXX....OX o@+.XXX.  .OO.X",
"XXoXoX...ooXO++OoOX.OoXX..XO+o..XoOX o@+OoX.oXoO@+oo+oOOX.oXXX .",
"X.Xo.XoOoX.oo ooXXo+oo+@OoX.o+OX..+OoX.X..XoXXXo. .XOOoX  OO. XX",
"oo+@Oo.XX.  XXOXX. .+@XOO..o. X+oX..XO@+.XOo@+ .XX+Ooo..OO..oOO+",
"O.  . .o.XXoOoX.  .X.XX  O.XO+Oo .XX..oo+o. .... ...XoXoXXOO..oo",
"XX..Oo+Ooo Oo. ooOoOO..OoXX.Xo O+OooOo.  .o.  XXXX  ..XX. ooXX O",
" OOo+@.X.XOXXX. .oo..OoX.OOo+O.XXXO+XXoXXoXX.X.XoO@+oO..oOX.  .X",
"XX..X.  +@OO+. .X...X ..XXoOoXXo..XoOO+O. ..oooO+@oX.XOO...X..Xo",
"ooOO  .XoO.  XX..Xo. XX+@oo.oO..oO..X.XoO+Oo..XoOoXXO+ooXX  oO..",
"O+XXX.OoXoO+@oOOoX.XX..X. .+XXoX. oXOo..oX@+X O@XX  XoX.  @+XXoX",
"X.  ooXXO+XXo@+X.XO+OoX. .XXoo. XX.  .+OOoX.OOXX. oOo..X..XXoo. ",
"OOXXoO..oXOOX..OoOO..oOoo .oXXOoOOXXoO..XXooXX .XX..XX  oOXOXXOo",
"X.oOXoO@+OX. XooX.Xoo  ..XoOO@+OX.oOXooX.oO+  XX.XOoOo@+XX .O@+O",
"XX.XOOX. .oXXOO..ooXX+OXOO..  XoXX.XOO. Xooo.XO+OX.X+@XXooXX  Xo",
"oOOoooOoXoXOOX.XX .Oo.X XXOXoX..oOOoooOoooXXOXX oOoO. XX.XOOoX..",
"OX..Oo..XX. .X.OOoO..Xo+O.. XXoOOX..Oo..XX. ..+@.X..OoOO.X. XXoO",
"X XoXOXX  XXX  X.X.XX .XXoOXoOXXX XoXOOX  XXOoXX .XX.X..  XXoOXX"
};
