/* XPM */
static char *Screenshot_from_2023_07_15_21_35_42[] = {
/* columns rows colors chars-per-pixel */
"64 64 234 2 ",
"   c #0D0C0D",
".  c #14130F",
"X  c #191715",
"o  c #1E1C1C",
"O  c #241918",
"+  c #221D1B",
"@  c #1F201A",
"#  c #21211C",
"$  c #2A271B",
"%  c #221D25",
"&  c #272525",
"*  c #2C2A25",
"=  c #2D2A2A",
"-  c #332B27",
";  c #353329",
":  c #2B2631",
">  c #372E31",
",  c #3A3734",
"<  c #453939",
"1  c #4B3D3D",
"2  c #543F3E",
"3  c #494533",
"4  c #58453E",
"5  c #5A5739",
"6  c #65653E",
"7  c #4C4442",
"8  c #4B4947",
"9  c #514544",
"0  c #544A4A",
"q  c #584949",
"w  c #58544C",
"e  c #554E50",
"r  c #5C5452",
"t  c #595757",
"y  c #674B4B",
"u  c #65544E",
"i  c #674E51",
"p  c #685555",
"a  c #645B56",
"s  c #645C5B",
"d  c #6B5A5B",
"f  c #735050",
"g  c #775556",
"h  c #735E5D",
"j  c #6B6943",
"k  c #79754F",
"l  c #797848",
"z  c #66615C",
"x  c #6C625D",
"c  c #6C6462",
"v  c #6E6A66",
"b  c #786765",
"n  c #746D6A",
"m  c #7B6C69",
"M  c #6F706F",
"N  c #787369",
"B  c #7B736C",
"V  c #7A7573",
"C  c #7D7A73",
"Z  c #895D5C",
"A  c #88635E",
"S  c #8C745D",
"D  c #8C6462",
"F  c #886768",
"G  c #826C6D",
"H  c #946768",
"J  c #9E6A6B",
"K  c #87766B",
"L  c #876F71",
"P  c #9A6E70",
"I  c #8C7475",
"U  c #837B74",
"Y  c #887975",
"T  c #857E7A",
"R  c #8D7C79",
"E  c #987878",
"W  c #A36F72",
"Q  c #A27475",
"!  c #A97779",
"~  c #B6797B",
"^  c #B47C7C",
"/  c #898456",
"(  c #97925C",
")  c #988D67",
"_  c #8A8077",
"`  c #85837C",
"'  c #8B847C",
"]  c #8A887F",
"[  c #928379",
"{  c #93857D",
"}  c #98867D",
"|  c #99887F",
" . c #989971",
".. c #A39B67",
"X. c #AC8874",
"o. c #AAA66D",
"O. c #B7B66B",
"+. c #B8B775",
"@. c #C1BE7E",
"#. c #DDD66E",
"$. c #DCD96D",
"%. c #C9C779",
"&. c #D3CC7B",
"*. c #DDD672",
"=. c #DCD974",
"-. c #D7D678",
";. c #DDDA7B",
":. c #E1D86C",
">. c #E2D573",
",. c #E1DB7B",
"<. c #9D7E80",
"1. c #B87F81",
"2. c #C17D81",
"3. c #8D8582",
"4. c #8D8D84",
"5. c #8B8A89",
"6. c #938581",
"7. c #9B8583",
"8. c #948B84",
"9. c #9B8B84",
"0. c #958789",
"q. c #948C8B",
"w. c #9B8E8A",
"e. c #8F9086",
"r. c #919186",
"t. c #9B9286",
"y. c #93928B",
"u. c #9C938C",
"i. c #9F988E",
"p. c #978D90",
"a. c #998E92",
"s. c #969491",
"d. c #9C9493",
"f. c #9D9894",
"g. c #9F9498",
"h. c #9C9B99",
"j. c #A38487",
"k. c #AB8284",
"l. c #A18D85",
"z. c #A28E8A",
"x. c #AB8A8B",
"c. c #B98586",
"v. c #B38A8C",
"b. c #A19387",
"n. c #A2938C",
"m. c #AB948F",
"M. c #A49B8D",
"N. c #A89E8F",
"B. c #AE8C93",
"V. c #B68D90",
"C. c #A19692",
"Z. c #AE9491",
"A. c #A39B93",
"S. c #AB9C93",
"D. c #A19599",
"F. c #AB9A9A",
"G. c #B19693",
"H. c #B39A95",
"J. c #BC9698",
"K. c #B69D98",
"L. c #BA9C9A",
"P. c #A8A08F",
"I. c #A7A095",
"U. c #ACA394",
"Y. c #ABA49A",
"T. c #AEA89C",
"R. c #B0A796",
"E. c #B2A996",
"W. c #B5A39B",
"Q. c #B9A49D",
"!. c #B5AB9A",
"~. c #B8AE9C",
"^. c #B6B396",
"/. c #BA9DA3",
"(. c #A9A6A4",
"). c #BCA6A1",
"_. c #B6ABA1",
"`. c #BAADA3",
"'. c #BDB1A6",
"]. c #BEB2A8",
"[. c #B8B8B8",
"{. c #C28584",
"}. c #C88888",
"|. c #D28A88",
" X c #CB8B93",
".X c #D28E92",
"XX c #C49A9A",
"oX c #D39394",
"OX c #D99996",
"+X c #C49EA4",
"@X c #EB9DA9",
"#X c #C4A4A2",
"$X c #C9A7A7",
"%X c #D2A9AC",
"&X c #C2B3A9",
"*X c #C1B4A9",
"=X c #D5AEB1",
"-X c #C9B7B5",
";X c #D4B3B3",
":X c #DDB4B3",
">X c #DAB9B7",
",X c #F3A1AD",
"<X c #EBBAB7",
"1X c #E1B7B8",
"2X c #E5BCBC",
"3X c #ECBCBB",
"4X c #F0B8B6",
"5X c #F1BCBA",
"6X c #D3CE84",
"7X c #D9D683",
"8X c #D3D18C",
"9X c #E1DD83",
"0X c #E4DD88",
"qX c #DEE29C",
"wX c #E2E090",
"eX c #DAD9A0",
"rX c #E7C1BD",
"tX c #EDC1BD",
"yX c #F1C2BE",
"uX c #E7BEC0",
"iX c #ECBEC2",
"pX c #F1BFC6",
"aX c #CACBCA",
"sX c #DADAD9",
"dX c #EDC2C2",
"fX c #EAC6C6",
"gX c #F2C4C3",
"hX c #F3CBCA",
"jX c #F6D4CE",
"kX c #E2E1DF",
"lX c #E6E5E4",
"zX c #F1F0EE",
"xX c #F5F5F5",
"cX c #FBFBF8",
/* pixels */
"Z.G.H.H.H.H.G.G.G.m.Z.6.4.e.r.r.e.y.y.r.r.r.r.e.] e.] ` A.Y.Y.Y.Y.Y.T.Y.Y.I.I.A.A.A.S.8.8.9.8.9.8.9.6.q.w.w.w.w.w.w.w.{ z.H.G.Z.",
"H.H.H.G.G.m.m.l.R } { ` ` 4.4.e.y.e.y.r.y.r.r.] ] ] ] M.U.T.Y.Y.Y.Y.Y.I.A.I.I.f.8.8.8.9.9.8.9.8.7.8.w.w.n.w.w.8.{ 6.6.z.K.G.m.m.",
"H.H.G.G.G.G.G.l.B ` ` ` 4.e.r.r.r.e.r.r.y.y.y.r.I.T.I.T.T.T.U.I.A.A.S.S.A.P.i.u.8.n.y.9.9.9.9.9.w.w.w.b.w.n.w.8.z.Q.H.L.H.G.G.G.",
"9.x.m.G.G.H.L.l.U 4.4.4.e.r.r.y.y.e.r.r.r.r.r.e.i.I.I.I.Y.A.y.8.8.y.I.T.I.f.I.u.6.w.9.w.y.9.8.9.9.w.w.n.n.n.w.9.7.G.G.G.G.m.m.7.",
"P.b.H.K.H.H.H.l.C ] 4.e.r.y.y.y.y.y.y.r.e.e.e.` i.A.I.I.I.u.w.C.A.C.i.Y.Y.I.A.t.8.w.w.9.8.w.6.9.9.w.w.w.n.n.u.9.| G.G.G.m.m.7.M.",
"E.P.G.K.H.K.K.x.C ] 4.4.e.r.r.y.y.y.y.y.y.e.e.` i.Y.T.T.T.M.A.n.n.A.u.I.T.I.I.i.8.w.9.9.9.9.8.8.w.8.q.9.9.w.w.8.| G.H.H.H.H.b.R.",
"E.N.G.J.H.H.H.b.C ` ] ] ` 4.e.r.y.r.r.e.e.e.5.` i.U.Y.T.I.] T T y.M.y.U.Y.A.f.u.{ 8.6.{ 6.6.7.w.w.w.w.9.8.9.8.8.| J.K.H.G.G.M.E.",
"E.P.b.b.b.m.m.| C ` 4.` ` ` ] e.r.` ` ` ` ` ` 3.] ] ] u.F.Z.R r 1 c { t.y.t.t.] { 9.8.8.6.6.' w.w.w.6.w.w.9.9.9.| | | b.| l.b.R.",
"E.E.R.R.E.E.E.I.y.h.h.h.h.e.4.r.y.4.y.h.h.h.s.s.u.A.8.6.uXpXhXfX/.p 0 q.A.n.i.8.U.*X'.'.'.!.6.6.9.9.z.&X`.'.].&XN.P.P.R.P.U.E.E.",
"P.R.R.R.R.E.^.M.e.e.y.s.s.5.4.e.e.` 5.s.h.s.s.y.w.d.B G uXuXiXiXgXfXL 8 8.y.w.8.U.&X'.`.'._.' U x r r p s s n C.M.P.P.R.E.E.R.P.",
"P.E.R.P.U.E.E.P.y.s.s.s.s.s.T 4.5.C 5.s.y.y.s.5.8.i.3.7 #XiX5X4X5X5X2Xp a i.n.q.U.'.'.`.C.L p b 7.G.$X%X%XJ.I 7 K E.E.P.R.P.P.R.",
"P.R.P.P.E.!.E.P.y.s.h.h.h.h.e.` ` s.s.p.s.y.s.y.8.w.w.c 7 I +XuX<X5X5XL.1 8.i.8.S.`.U.m p 7.=X1X$Xc.E } ;X<XpXF.8 P.E.E.R.R.R.P.",
"R.U.E.E.E.!.!.P.y.s.y.s.s.q.s.s.s.s.s.y.s.s.s.q.8.n.i.A.y.T c m #X3X5XuXq B i.8.Y.M.t <.>XuX/.<.{..X XD F 2X<X).a R.E.E.E.E.R.P.",
"U.E.E.P.i.i.i.u.p.y.y.s.y.s.s.s.s.s.s.y.4.4.q.6.y.n.n.i.n.A.F.N 9 /.dXtXh s S.n.s.e F.hX:XE 1.@X,X,X,XW F uX$Xn | !.^.!.R.R.E.U.",
"E.E.^.P.h.s.s.s.s.s.y.s.s.s.s.s.s.s.s.q.q.M.u.i.t.u.y.u.b.u.i.A.n 9 ;XgXm v &X_.r B.hX$XF  X,X@XoX X<.P H.I x t.^.E.E.~.!.!.E.E.",
"R.E.E.M.h.s.s.s.s.s.s.s.s.s.y.s.s.s.s.8.y.i.u.b.y.u.u.n.y.' T T ' 7 R iXb B &Xx b gX%XL c. X1.1.<.<.L d w K U.E.E.!.E.~.^.~.^.^.",
"R.R.E.P.4.s.s.s.s.s.s.s.s.y.s.s.s.s.s.y.8.n.i.u.u.w.3.c 9 1 1 1 > X 1 >Xd _ t.7 -X>Xg I x.w.I m p e d <.M.E.E.E.E.!.^.~.~.~.~.!.",
"E.R.R.E.t.4.e.4.s.s.s.s.s.s.s.s.s.s.s.h.y.q.y.8.q.B r m H.%X>X:X%Xx.h d , ` t <.fXG c I d t n 8.(.].[.].'.U.N.N.P.!.!.!.!.E.!.!.",
"E.P.P.R.!.E.R.M.y.s.s.s.s.s.y.y.s.s.s.s.s.h.d.y.d G $XdX3XdXgXgXyXtX3XXXp 1 0 >X2XZ.s a w._.'.*X&X]._.`.'.].~.'.P.E.E.E.^.E.^.E.",
"^.E.R.R.E.E.E.A.s.f.f.y.y.q.3.5.5.q.s.h.f.h.q.a 7.uX3X3X3XiX<XdXfXtX2X3X%X< j.dX$Xi C `.].'.'.U.S.T.`.`.`.`.`._.M.E.!.^.~.E.~.E.",
"E.E.E.P.E.E.E.M.s.h.h.h.s.4.F.&X].A.y.s.s.s.s m 2X5X3X<X4X3X<X2XyXtX<XrXE i 2X:Xr L ].].'.'.n.q.q.q.U.`.`.'.'._.N.E.E.E.~.^.~.!.",
"E.E.E.R.E.U.E.M.s.s.y.s.y.q.].].].].q.s.h.V 0 ;X<X2XiXiX3X3X2X<X<X<XtXrXL L.rXL : T.&X].`.!.8.q.y.q.u.`.'.`.`._.M.R.E.E.!.!.!.!.",
"E.E.E.E.E.E.^.N.q.s.s.s.y.y.].`.`.`.p.s.y., u ) S A G 7.%XfX3X<X<X<X<XtXiX2X:X2 > a '.*X&X`.8.d.A.u.i.&X&X'._._.N.E.E.!.E.~.^.W.",
"^.U.M.M.M.M.N.t.4.4.q.q.8.y.`.].'._.5.y.t # ..&.%.O...S 9 L >X5X<XtX<X<X5X3X1XL.G.- { T.U.T.u.A.C.i.u.Y.S.S.S.U.b.M.P.P.P.N.P.E.",
"~.U.8.8.8.q.8.3.!.`.`.`.`.'.'.'.`.&X].Y.: 6 -.=.$.=.;.7X+.3 b 3XtX<X<X2X3X5X5X3X2X9 8 u.y.i.u.s.n.s.u.w.u.y.u.i.| t.u.u.i.q.b.!.",
"!.E.8.i.u.d.i.3.!.`.`._.`.!.~.!._.`.`.s o O.=.=.-.6X6X0X,.o.- +X5X5X4X2X2X5X5X3XiXF = i.u.u.u.i.d.i.s.i.n.d.d.d.] i.f.f.d.u.M.E.",
"E.b.y.f.i.u.q.3.A._.`.].'.`.`._.`.'.u.% 5 -.l j 8Xo.3 O.:.6X3 E 5X4X<X<X3X5X3X3X3Xx.+ 3.C.d.d.i.i.s.s.C.A.f.C.A.3.y.i.u.u.i.t.U.",
"M.i.i.d.f.d.f.n * , e B q.A.U.U.U.m & - o.;.5 , qX..$ O.:.;.6 h dX3X<XdX3X3XyX3X3XH.+ ` A.f.i.d.d.u.u.u.i.d.i.d.8.d.A.A.f.f.i.t.",
"i.f.A.A.A.f.f.e X w #   X o & * * $ u O.;.;.%.+.wX&.O.$.=.,.l d tX<X2XhXtX<X<X3XiXH.+ T d.i.i.d.i.u.u.C.i.s.u.d.8.y.A.A.A.A.A.f.",
"A.A.A.A.f.f.u.= 6 eX3 3 / j j l ( @.-.$.=.0X0X,.-.=.,.=.>.,.l b gX5X<XgXtX2X<X3XiXZ.+ ` A.A.A.s.y.u.d.C.A.A.A.A.6.8.8.8.i.f.i.i.",
"d.i.d.f.i.d.` o o.&.; l 9X;.,.$.>.9X9X$.:.=.>.#.-.,.,.=.>.7Xj I gX5X3X<X<X<X<XyXpXj.& U u.A.d.A.A.d.A.n.A.d.d.A.A.D.f.d.q.f.s.w.",
"u.d.i.f.A.A.C + O.+.@ ( 6Xo.( / / ..%.7X=.:.$.#.=.,.,.=.$.&.5 G.yX2X3X3X<X<X<X5XdXR * t.8.u.u.u.i.i.f.A.C.A.A.f.s.i.u.A.8.u.s.u.",
"s.d.A.f.A.A.C o ^.N . w ; @ : : = + * k 6X=.$.$.$.$.*.$.$.@.0 =X<X3XtX<X<X4X<X5XgXG * 8.y.A.C.i.i.i.u.d.i.s.C.s.d.i.q.u.8.s.u.u.",
"d.i.i.i.d.d.4.# 3 o   > z e.F.`._.s.t . j wX-.#.*.*.*.$.-.k E iXtXdXtX<X<X<X<X3X5Xp * 6.d.i.d.s.d.A.A.A.A.d.d.i.8.8.8.3.u.d.y.s.",
"n.s.i.s.A.d.A.r @ = C U._.'.`.`.'.]._., X r.8X&.;.7X;.-..._ 2X<XgXyXyXgXyX3X<X3XrXr , i.w.u.d.i.i.i.d.A.A.A.A.C.' 3.q.i.A.s.n.A.",
"8.i.f.A.A.S.d.8.e.I._.W.!.E._.`.`.].].8.= U K K ) ..) X.J.dXgX5XtX2XtXgXgXpX2X:XG., 0 d.i.s.A.A.d.d.i.u.i.C.A.d.3.d.f.i.u.p.u.8.",
"q.3.f.A.A.A.d.8.`.'.!.!.W._.!.!._.`.].u.: 7.$X%X$X#X).$XXX Xv.V.v.v.x.k.k.E F D y   & M s.A.C.f.C.A.f.d.f.i.i.u.8.f.A.A.i.u.3.q.",
"g.d.q.d.n.d.i.4._.`.W._._._._.`.`.`.].6.O 2 i g g i q i 4 Z Z H J J J J J Q k.OXk.o t 5.e 8.A.A.C.A.A.A.A.i.u.y.3.d.A.A.d.y.0.g.",
"g.a.8.f.C.f.s.8.`.`._.`.`.`.`.'.'.&X*X` O Q 2.2.2.1.2.2.|.|.|.|.OXOXOXoXoXOXOX.XP > aXxXe M A.C.A.A.A.A.A.A.C.d.3.u.f.d.d.q.q.D.",
"D.q.3.8.5.6.' T R._._.T.T.W.`._.`._.W.n O g J J W ! ~ ~ ! W J H H A D Z A D D A g , kXzXs.T T u.s.n.u.w.w.y.q.8.' 8.8.4.q.3.8.D.",
"g.d.g.d.a.p.p.q.M.N.M.b.b.t.W.W.!._.b.z q #XQ.V.x.E P E } Z.G.V.J.L.J.XX#X#X#X>XQ.9 kXxXxXzXs.q.A.A.9.b.m.n.n.n.8.p.a.a.a.d.D.D.",
"D.D.D.a.d.a.a.w.S.U.U.U.U.N.`.`.`.`.M.x p yXyXyXgXyXtXtXfXjXjXfX<XtX3XdX3X3XrXjX&X0 kXcXxXlX(.s.C.A.u.H.K.Q.L.H.q.d.a.d.D.a.g.a.",
"D.D.D.D.g.a.g.w.S.R.R.U.U.M._.`.`._.S.v 9 v.V.XX$X1XrXrXrXdXfXfXgXtXgXdXdXdX2X>XG.0 lXcXxXT t A.A.f.w.K.W.Q.W.S.0.a.d.a.g.a.g.g.",
"D.D.D.D.g.g.g.q.M.R.!.!.E.U.A.!.W.A.U.n y X.! H A A F H P Q ! X.k.v.v.k.k.Q P H f < kXcXcXh.s n.u.w.S.K.Q.W.W.H.0.a.p.p.a.p.0.p.",
"d.a.a.a.a.a.g.q.A.R.E.R.U.E.U.n.M.U.R.N h oXoX.X.X|..X}.{.{.|.X.~ ~ ~ ~ X.|.}..XP < kXzXh.M 6.S.C.S.Q.K.W.W.Q.H.0.p.p.p.a.0.p.a.",
"D.D.D.d.p.0.0.q.U.!.~.~.E.U.S.U.R.R.!.u.n b y i Q E E Q ! ^ c.c.}.}.c.{.2.2.^ H 1 8 sX-X8 s.W.K.Q.Q.Q.W.H.Z.Z.w.0.p.p.a.a.a.p.g.",
"D.D.D.g.y.S.S.S.R.!.~._.~.E.U.R.R.R.E.U.u.A.3 > 9.} R q O p p u w < y f g 2 O 9 I n.W.n.C.`.).`.Q.W.H.S.z.C.D.D.a.p.p.p.a.a.p.a.",
"D.D.D.w.U.U.Y.E.T.!.E.!.!.R.S.R.R.R.E.b.{ 9.0 8 9.} 9.B * [ | | { , R | w.6.& 3.).).Q.).).).).).).).Q.Z.a.D.a.a.d.a.p.a.d.g.g.a.",
"a.g.g.q.N.U.R.R.R.R.!._.~.!.E.!.~.~.S.B C c , 8 7.' R n & R } [ { 1 C } 7.n.> q.).Q.K.K.K.W.Q.).).Q.W.Z.0.D.D.D.D.D.g.a.a.D.d.g.",
"a.a.a.d.t.S.U.U.!.R.E._.!.!.!.~.!.!.z h.zX[.& 3 [ n M > - [ G x K 7 x 6._ 8.* C W.W.W.Q.Q.W.W.Q.`.Q.Q.H.C.s.D.D.C.D.a.p.g.a.d.a.",
"a.0.p.a.f.u.C.w.R.!.E.!.!.E.!.W.!.R.C 4.h.s.c N M <.sX` , a M [.v = z n aX[.0 8 w.H.K.W.W.Q.Q.).).Q.Q.Q.Q.Z.n.w.0.g.g.a.g.a.a.g.",
"a.a.a.g.D.D.D.u.S.!.E.!.!.U.E.T.U.!.E.U.A.U.T.b.{ B B v x x t r.V , T e ].aXs.c n.K.).).Q.Q.!.H.H.W.Q.Q.Q.Q.Q.S.w.D.g.a.p.a.a.a.",
"a.g.a.D.D.D.g.a.U.~.!.~.~.T.t.r.t.t.E.E.~.E.E.b.9.l.| | | | Y K B { 9.[ { | 9.w.7.Q.Q.).Q.!.Z.z.n.w.Z.W.Q.Q.Q.m.p.D.D.g.a.p.a.a.",
"a.a.g.D.D.D.D.w.U.!.!.~.!.S.] e.4.] I.E.T.E.T.u.| | | b.l.l.l.| 9.9.7.9.9.9.9.| w.W.Q.Q.).H.w.u.n.n.u.W.Q.Q.Q.H.z.D.g.g.a.p.p.a.",
"g.g.g.g.D.D.D.d.U.!.~.E.~.t.` e.4.4.M.~.!.!.E.M.9.l.l.l.l.l.l.| } | 9.| 7.| } } | W.Q.).Q.S.w.u.u.n.n.K.Q.Q.W.m.p.D.g.a.a.a.a.d.",
"a.a.p.p.p.p.p.q.S.!.E.E.!.M.] y.r.4.N.E.!.!.E.f.} | | l.| | | | } | | | } [ [ [ } H.H.W.H.m.8.w.b.u.7.Z.S.Z.m.n.0.p.p.0.q.p.p.a.",
"D.q.z.z.z.j.z.z.] 8.r.| t.y.r.y.r.r.r.r. .y.r. .8.8.| 8.| [ | 9.| } _ { { ] { ' 9.w.u.b.w.z.w.z.w.w.w.9.9.9.9.8.7.z.z.n.w.w.0.a.",
"a.q.Z.H.K.H.H.z.` 4.e.r.r.e.e.r.e.] r.e.e.e.r.] u.A.I.I.I.| l.l.9.} ] t.A.I.S.t.8.n.n.n.u.n.n.w.u.w.w.n.w.u.w.9.z.L.L.H.G.Z.0.p.",
"p.<.Z.H.H.G.G.l.` e.e.e.e.e.] r.e.e.e.e.e.y.r.e.t.I.I.I.I.r.9.t.9.| { I.Y.I.I.u.6.u.w.n.n.u.z.u.w.w.w.w.w.w.w.8.7.K.H.G.G.Z.6.p.",
"5.0.K.K.L.K.G.l.` e.r.r.e.e.e.r.e.e.e.r.y.e.y.e.i.S.A.I.I.i.| 7.| [ t.Y.T.T.U.u.w.w.n.u.w.n.n.w.w.u.u.w.w.w.7.6.j.K.H.H.Z.B.w.3.",
"a.K.G.G.G.G.m.l.` e.r.r.y.e.r.r.r.] e.e.] r.r.] u.I.Y.Y.Y.I.f.8.| i.A.I.I.I.I.y.9.n.n.n.n.C.n.u.b.w.z.u.w.w.8.6.w.L.L.H.m.Z.H.m.",
"G.Z.G.G.G.G.G.| C ` ` 4.r.r.r.e.e.r.e.r.y.r.y.] t.A.I.I.Y.I.I.A.A.A.A.A.I.I.A.i.8.8.9.u.w.w.w.w.w.w.n.n.u.w.9.8.7.H.G.G.Z.G.G.G.",
"H.K.J.K.L.H.H.m.| n.7.` r.y.e.e.r.] r.r.y.r.y.y.t.y.r.t.I.Y.Y.Y.T.Y.Y.I.I.A.I.A.8.t.8.3.w.9.w.9.9.8.w.w.w.w.b.w.w.7.9.7.Z.G.G.G.",
"H.K.L.K.K.H.G.H.K.H.R.t.` r.e.y.y.r.y.y.r.y.y.e.y.e.y.r.A.!.T.!.T.T.T.I.I.Y.I.I.I.A.S.u.{ w.w.8.9.w.w.w.9.9.9.w.y.9.9.9.7.H.K.H."
};
