/* XPM */
static char *sol2[] = {
/* columns rows colors chars-per-pixel */
"64 64 74 1 ",
"  c #7C766E",
". c #7E7B73",
"X c #827D75",
"o c #8C7E75",
"O c #867E7A",
"+ c #8B7E79",
"@ c #828077",
"# c #898176",
"$ c #85837B",
"% c #8C837C",
"& c #8C887E",
"* c #918177",
"= c #95857C",
"- c #98877E",
"; c #918A7F",
": c #99887F",
"> c #8E8683",
", c #8D8C84",
"< c #8F8C89",
"1 c #938682",
"2 c #998782",
"3 c #948C84",
"4 c #9B8B83",
"5 c #93878A",
"6 c #948C8B",
"7 c #9B8E89",
"8 c #8F9085",
"9 c #929186",
"0 c #9A9286",
"q c #93928B",
"w c #9C938C",
"e c #9F988B",
"r c #978C90",
"t c #998E92",
"y c #969491",
"u c #9C9493",
"i c #9D9894",
"p c #9F9498",
"a c #A18D85",
"s c #A38E89",
"d c #A88F8C",
"f c #A09587",
"g c #A2938D",
"h c #AA928E",
"j c #A39B8D",
"k c #A89F8D",
"l c #A19791",
"z c #AD9591",
"x c #A39B93",
"c c #AA9D92",
"v c #A19599",
"b c #B19793",
"n c #B49A95",
"m c #B59D98",
"M c #B89D99",
"N c #A9A08F",
"B c #A7A093",
"V c #ACA394",
"C c #ACA499",
"Z c #AEA89C",
"A c #B0A795",
"S c #B2A996",
"D c #B4A49B",
"F c #B9A49D",
"G c #B5AA9B",
"H c #B8AE9C",
"J c #B9B09D",
"K c #BBA6A0",
"L c #B7ABA0",
"P c #BAADA3",
"I c #BEB1A6",
"U c #BFB2A8",
"Y c #C0B3A7",
"T c #C1B3A8",
/* pixels */
"zbbbnnnbbbbs%89888888888q,,$xZZBCZZBBCxxjxx33754547777lg777>znbz",
"bnnbbnbh:ds*>,988y9qq88,$,$8BBZCCZZZBxBx7e0361-3:437777215*anbbh",
"nnbbbhhaoXX$,8<8889qqqq8eyiBCZZCxCxxxxxw37774454767s7g71hzzMbbhn",
"dzhbbbMhX#&,,99qy8889q98BZBZCCi06iBCxxxq4744744477fwg7s1hnnnnbdd",
"fabMnbnh.,,,899q8q888q,,iBxBBw3gi0xZZxxq4777764477ffgs72dbhbdd:f",
"AAhMnMMh@$,,<9qqqqyqq,,$yBCCZilwlxiBCxx0577443=72257w771dbbnndjV",
"SVzMMMMz.$,,,,8q88qq88,,BACZCeglgwwZZCBw3745545a7s77677=hnMnnhNS",
"Skshshh: .@@@$,8,,,$$$$@8990930ww030w07%o%ooo%1f751-11=o:sadsskS",
"SSNNNAVN8yyyyq,8<,,yyyyq0wwgww70ixxwlww3ALGGLl1563xPLDPAhkkfNNSS",
"AASSSSSV8yyyi<,8<,<iiyy<wwxiw07wgwgww071LTIPIc*545xPPPIDfNSSANNS",
"NNANASGN<yyyyy$,<$<yyyy<7wwgwwwwww0wwww7LIIPUA%77-ZPPPPANSNVSVSN",
"NANNASSNqyyiiy,$.>yqyyy<3w0q7770wwwilww3ALLPPPj%*lPPPPPGNSSNNVVN",
"SNSSAJJAqyyyyyyqqyyyyyyq3wwwweixllgxww03DIHGGLIHPUPLPYIGNSSSSSNS",
"NSSAVxxe<yqyyyyyqyyr<66>0lgwwewggjxg00e3LTIIPPPIPPPGSVccVSJSSSSN",
"NSSSiiyyyy<yyyyyyyyy,iwwwww00wwwwww9gPUITIIIIIITIPGCkNSSSSSSSSSS",
"SSSNyyyyyyyyyyqyyyy>eww0wwwwwwwwlwg7LIIPIIPILIIITPLVkNSSSSSHJJSS",
"SVSN9yyyyyqyyyyyyyyyywwg77w07777w073AIILPLGGLLIIPPHCjSSSSJJJJHHS",
"SSASe,<<yyyyyqqyyyyy6q070w7q0737w370gACCALLHPHPUYIPIAjVNSSSJHSSS",
"SSNSHVBeqyyyyyqyyyyyiiy63ww070ww777lxwe1ZLIIIPPITIIIUPGCNSSSSJJH",
"SSAVSSGByiyyr<,><<yyiiy67llww6w7ww0wxxg7DUIIIIPCAPPPPIPDNSJSSSSJ",
"SSSNASSNyiiiy5yPPyyyyyiy7gww07wwwwwwixg0LUUUIPe70wPPPUIZNSSJJJSS",
"SSSVSAANqiyyq6PTTI6yyiiy7ixxxiwwigjwwww3AUIIPC1776nIIPPDNSSHHSHJ",
"SSSSASSN6yyyyqPIPPyyyyyywxxxxlw0wgwle0w3GUTIUC3ii7CUIPPANSSSSJSS",
"SSNNNNNN,<<<,3PUIL><<,<<307773wwww333111CDGDDCwli7xACBCCfNNVNNSS",
"JG893331CLLLLPUPPTIPPLLC390e9;gww73eeee9wwwwwwilwuw70www;0www3VS",
"SG90wwy>DHPLLLLLLPPLPIUL3eBBB0xjw09NNjj0wyywywwwiwywiuu71jixiqAS",
"SN0ilu6>ZIPPPLLGPPPPPLPn,BVVB0exi34jBjj9wxxlliwwiwiluixw3wyww0NV",
"jewiwii3DIPIPPLLPPPIPIUZ;eBjjj3933jBjBj:wxllluiiwwwiwii66ixxxx0f",
"wxxxxuw>ZPLLGGGLDGKPPIIL#0ejBBBeeBBBBNB9wxiiuiwiwwyuyuiw3iixxxxw",
"ixxxxui3wlxDDGDGGPPIUIPL#930jBBNBeBBBej;333ixxlywwixxuxg>33wiiiy",
"iiiiiiiw6337LDLPPPIIIIPIIIIg0jBjeeeeNeeee093gxilgilluxlxlxl7wiww",
"7wwxixlwuuw1CPLLIIUTUIUTIIIA9NBBNBNeeeeNjjj97wwwiilxxxlly6ii1yy7",
"wixiixxlyu6%CLCLLLPPTTTTTTTSeVVVNBeeBBeNjjN9eliiwuwwyliyi0q76y7y",
"wiwiiuw6>O%wPDGPLPPLPPPPGPGfeBBVBBNBBeN9;939iwwuxxxxxlu71613iwwl",
"iiuwlli3cxCGGLPIPYYYYYPD3e9eeBjNBBBNBee;377wwwiilwuxxxxw%3wxlyii",
">7ixxxl3DLGDDGLPPYPYYPIL30eeBBe;;eeeeeN;3iywyigxliwuillq5iywww3>",
"t5wixxl3DILDZDLDLPPYPIIL3ejBN0&4:;;;eee;3wyiilllxiliiww66xxly5,y",
"uu3iwiy3GPLDLPLPPPIIUPPC&jjBj;44:00Neej;6wwiixxxlxxxliq56lxxl1tv",
"pu1yiiy3GUUPPIIPYYYPPHGV&eej0;a40:;eeee;3wwquwillxxxxxi7,uiwi5vv",
"pt>3>>+OxDDCCnPLKPccccVj#&;;;#::::#&&&&$%67677wwiw677331>1,1>%tv",
"ppvvutttjcjjjfALLL0jjfjf:a444:-*:f44:::=azzzz5jxxl7zzlz76tpptvpt",
"vvvtttt7jACVkjPPPPgVAVV4::a:a:--::::::-=hDFDmwlixlgmFMFdrutpptpp",
"vvvvpuptjASCAjDPPLlAASV4--:::-=-::::::44hFFFFzwxxwgDFDml6tttpttv",
"pppppputgAAGAVcDZzCSGSA0=:::-==-:::4:44-7mFFFDgw77mmFFms6rrrr6rt",
"tuttrtutjAGAAAVjjVAGHACf=::::a::aaaaaa4:sDFmDmDznFmDmLMz5rrtr5tp",
"vvvvt556xHHHGANVASGGVe0*:::a:::::::a:=-=hFKFDDFFFDFmzzl2rttttttv",
"vvvvwcVVDHHHGDCVAASc:04a:-::::::::::=fznFKKKFFKKKDcz7vvtrrrttrru",
"vvv7xADAAAAGASCAADSf:4::::::::::::::anDFFKFFFFKKKKmsuptputttpppu",
"ttptfVAAAAGHHGGGHGAj-4:44-=---**=:==4mDmmFmMmFLFLKms7vvvvvttvtup",
"tttuwgccAASGGGHGHHAC:=:-::-*-***==*:24aazDFDDFFFKKDmvtvrpptrvuut",
"rrrruuluCGGGGAAGAAACCjf3-:::--=-=-::h4a:sDFFFFFFKLKKFcz7rvuttttt",
"tttpvvvtjGGGGGAjVAAHGGSf:aa4--==--:::aa4sDKKFFmhgnFMFFmstvvtrttp",
"utpvvvv7NGGGHA93,0VAGSSj:a::a:::-:a::4a:sFKLFnwgl7nDFFFgtvvttrtt",
"tpupvvvvVJGGGj&,,&jASAC0:::aaaa:-:a:44::sFFKDhwwgsgFFFMgvvpptrtt",
"rtvppuptkHGGHj$89,xHHHGeaaaaa:a:-:4:::-=hFFKFh6gwwzMFFnstvtttrut",
"vt5555550jNxVj8q9,jkjVB0--==-=::::*=*ooo:ghhd777s71sfs72155>55rt",
"ptsbbbhh&,389998<88,,8880eww0;:a:=%300w37fgggws7777ww7a5znnbzsrr",
"rrsbbbnh#,8888<888888q8,0xCCx4aa4:;xxcx95ggg7gl7ws7s7771hMnbb7rr",
"r>zMMnbd$9998q888888qq88xxCxx047a=3CZBC05fuss7ggw777774*znbbzs>r",
">7nnMnbd@,99q88qq,8888q8exxxCx3-o4xVCZB077gglg7777a77751zMnndb75",
"znbbbhzs.,,888888,888888wCCCZxxiixxBxxx67gfgwsgfswg77621bMnbzbbb",
"bbnbnnbdX%$$8qq<,888q9880w0iBBCxBxBxxCxw>=13777777sgs772ssszbbbb",
"nnMMMnnbnnn1,9q999999q9qqqq0CZZZZZCxxBCxxif35774577327777722bnbb",
"nnMnnnnbnzzg@,889qqqqqq8888qxZZLZLZCZCBCcxxw:775a7w777727271hMMn"
};
